<?xml version="1.0" encoding="UTF-8" standalone="yes"?>
<svg version="1.1" id="Layer_1" xmlns:x="&amp;ns_extend;" xmlns:i="&amp;ns_ai;" xmlns:graph="&amp;ns_graphs;" xmlns="http://www.w3.org/2000/svg" xmlns:xlink="http://www.w3.org/1999/xlink" x="0px" y="0px" viewBox="0 0 315 315" style="enable-background:new 0 0 315 315;" xml:space="preserve">
      <style type="text/css">.st0{fill:#FFB203;}</style>
    <metadata>
              <sfw>
                      <slices/>
            <sliceSourceBounds bottomLeftOrigin="true" height="315" width="315" x="1435.912" y="-504.214"/>
                  </sfw>
          </metadata>
    <g id="color_index_0" fill="#ffb203">
              <path d="M254.535,0H0v315h315V141.763L254.535,0z M247.357,10.867l42.592,99.862c-0.001,0-0.001,0-0.001,0l3.602,8.446&#x9;&#x9;L185.244,10.867H247.357z M70.616,157.488c0,48.967,39.838,88.806,88.808,88.806c44.752,0,81.878-33.274,87.942-76.379&#x9;&#x9;c0.66,5.062,1.002,10.224,1.002,15.464c0,65.428-53.183,118.662-118.588,118.754h-0.334&#x9;&#x9;c-65.24-0.091-118.305-53.055-118.578-118.252v-1.003C11.14,119.627,64.296,66.624,129.612,66.624c7.97,0,15.759,0.79,23.292,2.294&#x9;&#x9;C106.965,72.263,70.616,110.709,70.616,157.488z M159.424,79.548c21.11,0,40.288,8.437,54.339,22.116&#x9;&#x9;c1.711,1.721,3.373,3.494,4.977,5.317c11.608,13.613,18.625,31.257,18.625,50.508c0,42.975-34.963,77.939-77.941,77.939&#x9;&#x9;s-77.941-34.963-77.941-77.939C81.483,114.511,116.446,79.548,159.424,79.548z M10.867,236.984&#x9;&#x9;c13.046,29.956,37.048,54.04,66.963,67.149H10.867V236.984z M304.133,304.133H181.416c45.752-20.029,77.818-65.695,77.818-118.754&#x9;&#x9;c0-32.73-12.198-62.672-32.283-85.509c-1.76-2.059-3.612-4.037-5.548-5.928c-23.487-23.576-55.963-38.185-91.792-38.185&#x9;&#x9;c-53.101,0-98.738,32.15-118.745,77.96V10.867h159.01l133.82,133.82c0.053-0.414,0.139-0.842,0.199-1.259l0.237,0.556V304.133z"/>
          </g>
  </svg>